<?xml version="1.0" encoding="UTF-8"?>
<!DOCTYPE svg PUBLIC "-//W3C//DTD SVG 1.1//EN" "http://www.w3.org/Graphics/SVG/1.1/DTD/svg11.dtd">
<!-- Creator: CorelDRAW -->
<svg xmlns="http://www.w3.org/2000/svg" xml:space="preserve" width="585px" height="98px" version="1.1" style="shape-rendering:geometricPrecision; text-rendering:geometricPrecision; image-rendering:optimizeQuality; fill-rule:evenodd; clip-rule:evenodd"
viewBox="0 0 19858 3337"
 xmlns:xlink="http://www.w3.org/1999/xlink"
 xmlns:xodm="http://www.corel.com/coreldraw/odm/2003">
 <defs>
  <style type="text/css">
   <![CDATA[
    .fil4 {fill:#006633;fill-rule:nonzero}
    .fil7 {fill:#663333;fill-rule:nonzero}
    .fil3 {fill:#9900CC;fill-rule:nonzero}
    .fil0 {fill:#CC3300;fill-rule:nonzero}
    .fil1 {fill:red;fill-rule:nonzero}
    .fil5 {fill:#FF0066;fill-rule:nonzero}
    .fil2 {fill:#FF6600;fill-rule:nonzero}
    .fil6 {fill:#FFCC00;fill-rule:nonzero}
   ]]>
  </style>
 </defs>
 <g id="Layer_x0020_1">
  <metadata id="CorelCorpID_0Corel-Layer"/>
  <g id="_2290888309776">
   <path class="fil0" d="M726 2692c132,-10 272,-27 397,-71 170,-61 323,-173 452,-299 139,-142 251,-316 325,-499 99,-254 129,-543 92,-811 -34,-248 -132,-496 -299,-682 -125,-139 -295,-248 -478,-296 -241,-64 -516,-33 -750,55 -85,30 -150,105 -194,180 -85,139 -132,305 -173,465 -85,366 -112,753 -92,1130 7,163 24,329 65,485 27,105 85,207 166,272 48,37 112,61 173,71 106,14 211,7 316,0zm129 -872c-54,-41 -68,-214 -75,-282 -20,-214 -13,-438 27,-652 14,-61 28,-125 58,-183 14,-24 31,-47 54,-61 38,-20 150,-10 191,3 57,17 112,51 152,95 65,72 102,163 122,255 38,160 24,339 -37,496 -30,71 -71,142 -129,193 -95,92 -258,214 -363,136z"/>
   <path class="fil1" d="M2986 2393c34,-17 65,-40 89,-71 34,-44 51,-98 54,-153 7,-81 -7,-163 -24,-244 -30,-180 -68,-363 -85,-546 -10,-85 -13,-174 -6,-258 3,-48 10,-95 34,-140 30,-54 108,-71 142,-17 27,45 24,231 27,282 7,65 31,143 85,180 78,51 278,34 363,-3 51,-24 95,-68 123,-116 33,-61 44,-136 44,-203 3,-92 -7,-180 -28,-269 -16,-88 -54,-176 -112,-244 -50,-58 -118,-105 -190,-132 -108,-41 -237,-41 -349,-7 -92,27 -177,75 -248,139 -41,-54 -92,-105 -153,-132 -57,-27 -118,-34 -180,-24 -78,17 -152,64 -207,122 -64,65 -108,153 -132,241 -71,302 -102,614 -81,920 13,214 57,441 173,621 23,37 57,68 95,92 61,37 135,51 207,54 122,0 251,-31 359,-92z"/>
   <path class="fil2" d="M5359 2516c54,-24 98,-75 126,-129 47,-95 61,-204 67,-313 14,-207 -6,-417 -30,-624 -14,-150 -24,-306 -71,-448 -34,-95 -92,-187 -170,-255 -88,-74 -207,-119 -323,-136 -162,-23 -332,-3 -492,38 -183,51 -502,183 -519,370 -10,78 61,183 132,214 72,30 167,17 238,-17 88,-45 160,-116 244,-167 68,-44 207,-91 268,-40 51,40 31,118 -30,132 -173,41 -343,102 -496,190 -105,65 -210,149 -275,258 -98,170 -128,394 -67,580 34,112 115,218 217,272 122,61 278,58 407,13 116,-37 224,-105 316,-186 10,68 24,142 68,193 81,95 278,109 390,55zm-879 -683c-17,-61 41,-173 88,-213 48,-45 109,-65 166,-92 24,-10 75,-24 99,-7 17,17 10,68 7,92 -17,95 -82,183 -156,237 -68,51 -180,68 -204,-17z"/>
   <path class="fil3" d="M6584 2485c88,-47 163,-129 217,-214 68,-112 116,-234 153,-360 48,190 160,381 319,493 85,61 184,101 282,118 109,21 221,11 326,-20 115,-34 224,-105 299,-200 101,-126 152,-296 173,-455 30,-261 0,-530 -55,-788 -23,-112 -112,-465 -193,-543 -37,-40 -153,-20 -207,-6 -34,10 -68,27 -88,54 -21,27 -28,61 -28,95 -3,136 65,265 95,397 45,190 62,390 45,587 -14,109 -41,268 -153,275 -55,4 -116,-30 -146,-78 -37,-58 -51,-129 -61,-193 -27,-218 0,-438 -21,-655 -6,-92 -34,-190 -95,-262 -27,-34 -68,-64 -112,-81 -122,-48 -346,-48 -434,51 -51,64 -88,142 -102,224 -24,122 -14,247 -34,370 -13,108 -34,217 -61,322 -20,88 -75,265 -159,285 -68,17 -109,-51 -116,-122 -3,-64 7,-132 20,-197 41,-183 109,-360 140,-543 20,-102 20,-207 3,-305 -14,-61 -37,-126 -75,-173 -30,-34 -71,-62 -112,-82 -139,-58 -380,-41 -475,75 -44,51 -71,119 -95,183 -81,244 -125,509 -136,767 -6,214 14,428 75,631 24,78 68,153 122,214 78,85 187,150 296,184 125,40 278,17 393,-48z"/>
   <path class="fil4" d="M9126 876c65,-30 123,-91 150,-159 74,-180 -4,-384 -183,-455 -197,-75 -411,27 -486,220 -37,92 -20,218 44,292 112,126 323,170 475,102zm204 1419c17,-34 24,-78 17,-119 -7,-61 -34,-122 -68,-176 -51,-89 -74,-190 -85,-292 -6,-72 -10,-435 -27,-506 -13,-61 -51,-109 -105,-143 -115,-71 -282,-50 -373,48 -51,51 -85,119 -106,183 -47,133 -61,272 -67,411 -7,109 -14,217 -11,322 4,92 17,194 72,269 64,88 173,146 278,166 156,27 407,-20 475,-163z"/>
   <path class="fil5" d="M10898 2546c85,-17 180,-45 234,-112 95,-122 55,-350 -37,-468 -51,-61 -136,-95 -217,-99 -85,-7 -452,82 -536,102 -11,3 6,-13 13,-24 194,-254 438,-468 614,-733 85,-129 136,-305 95,-455 -13,-57 -50,-112 -95,-149 -88,-81 -210,-122 -329,-136 -149,-20 -305,-3 -455,27 -163,31 -322,92 -468,170 -51,27 -105,58 -149,95 -27,21 -51,48 -65,82 -47,135 7,312 136,373 24,10 51,17 75,14 81,-7 152,-48 220,-92 92,-61 187,-129 292,-156 31,-7 71,-14 85,13 14,31 -20,95 -41,126 -64,109 -159,197 -254,282 -126,112 -258,224 -367,356 -81,105 -159,224 -180,356 -17,91 -3,193 44,268 34,54 89,92 146,115 92,42 194,52 292,65 312,48 638,48 947,-20z"/>
   <path class="fil6" d="M12090 3337c98,-3 203,-27 291,-75 109,-54 201,-146 275,-241 129,-166 218,-370 265,-573 58,-251 54,-516 51,-771 0,-153 17,-305 14,-455 0,-108 -7,-220 -55,-319 -24,-51 -61,-101 -112,-129 -98,-47 -302,-10 -387,58 -51,37 -81,102 -101,163 -24,95 -24,193 -31,292 0,61 -48,353 -65,411 -13,57 -37,112 -71,159 -41,61 -105,126 -156,78 -47,-41 -44,-187 -37,-248 20,-203 51,-407 54,-607 0,-37 0,-75 -3,-109 -21,-193 -248,-265 -428,-197 -54,21 -105,61 -139,109 -68,105 -102,234 -126,356 -30,173 -34,350 -34,526 4,126 27,258 82,370 40,82 102,157 180,211 57,41 125,64 197,75 122,20 261,-14 369,-79 95,-57 170,-149 221,-251 10,153 14,323 -61,455 -27,51 -75,99 -129,119 -61,20 -126,13 -187,3 -85,-13 -159,-57 -237,-88 -190,-81 -414,20 -411,227 3,68 27,136 61,191 61,98 160,176 265,230 136,72 292,112 445,109z"/>
   <path class="fil7" d="M13674 2584c60,-39 111,-99 128,-167 30,-110 33,-248 -35,-340 -146,-200 -507,-152 -597,77 -30,78 -38,173 -18,254 57,223 328,301 522,176z"/>
   <path class="fil7" d="M15040 2473c86,-38 167,-92 229,-164 39,-47 66,-110 75,-172 18,-105 0,-218 -36,-317 -18,-59 -59,-119 -113,-149 -45,-23 -98,-29 -146,-23 -93,5 -179,44 -266,71 -59,21 -131,48 -190,27 -93,-27 -138,-155 -126,-251 9,-71 45,-131 102,-172 47,-39 113,-57 176,-57 83,0 167,27 253,36 221,21 298,-245 191,-439 -30,-53 -95,-80 -152,-92 -131,-27 -268,-27 -400,-3 -155,27 -310,89 -429,191 -69,56 -128,128 -167,205 -66,129 -104,272 -110,415 -6,203 15,423 113,602 182,325 653,436 996,292z"/>
   <path class="fil7" d="M16435 2429c117,-48 221,-134 299,-236 119,-158 190,-361 217,-560 18,-135 15,-278 -21,-409 -24,-89 -68,-179 -128,-250 -101,-120 -259,-194 -411,-227 -111,-24 -230,-30 -337,-3 -114,30 -221,92 -307,173 -114,110 -194,253 -242,403 -51,172 -80,354 -63,533 12,155 84,313 191,427 105,107 260,173 409,196 128,21 271,3 393,-47zm-259 -698c-6,-134 21,-271 80,-391 48,-89 144,-161 221,-98 60,51 75,140 81,218 14,185 -24,429 -209,453 -101,15 -167,-81 -173,-182z"/>
   <path class="fil7" d="M17500 2521c98,-12 209,-50 271,-131 60,-75 75,-179 72,-277 -3,-143 -36,-290 -51,-433 -9,-98 -15,-205 27,-295 27,-68 122,-167 197,-164 65,0 89,99 98,164 24,194 -3,388 -18,582 -9,104 -27,208 -15,313 6,53 24,116 66,152 15,12 33,21 51,30 152,53 453,38 566,-75 27,-27 45,-63 57,-98 27,-81 33,-167 33,-251 3,-101 -3,-203 -21,-301 -24,-128 -36,-256 -57,-382 33,-47 84,-89 137,-110 27,-12 60,-15 84,0 53,33 71,170 74,233 9,173 -9,348 -27,521 -9,111 -32,227 -6,337 9,42 30,84 63,111 30,24 75,35 113,44 102,21 209,21 310,3 81,-12 164,-32 227,-83 140,-116 113,-495 81,-674 -36,-170 -45,-343 -96,-510 -33,-110 -92,-224 -182,-298 -92,-72 -220,-104 -340,-107 -199,-3 -396,95 -521,259 -45,-92 -120,-179 -212,-224 -137,-65 -313,-62 -453,-3 -126,54 -236,155 -302,275 -8,-87 -17,-182 -71,-248 -188,-223 -543,-101 -573,191 -20,209 54,420 60,632 3,200 -60,397 -48,594 3,47 12,101 42,140 60,77 265,92 364,83z"/>
  </g>
 </g>
</svg>
